<?xml version="1.0" standalone="no"?>
<!DOCTYPE svg PUBLIC "-//W3C//DTD SVG 20010904//EN"
 "http://www.w3.org/TR/2001/REC-SVG-20010904/DTD/svg10.dtd">
<svg version="1.0" xmlns="http://www.w3.org/2000/svg"
 width="2550.000000pt" height="2550.000000pt" viewBox="0 0 2550.000000 2550.000000"
 preserveAspectRatio="xMidYMid meet">
<metadata>
Created by potrace 1.14, written by Peter Selinger 2001-2017
</metadata>
<g transform="translate(0.000000,2550.000000) scale(0.100000,-0.100000)"
fill="#000000" stroke="none">
<path d="M13969 17216 c-2 -2 -24 -6 -49 -9 -25 -2 -63 -13 -85 -22 -22 -10
-43 -18 -47 -17 -3 1 -23 -14 -44 -33 -21 -19 -42 -35 -47 -35 -4 0 -5 -4 -2
-10 3 -5 1 -10 -4 -10 -13 0 -58 -70 -63 -96 -2 -10 -7 -22 -11 -25 -28 -21
-24 -232 4 -250 6 -3 10 -10 10 -15 -5 -42 111 -175 171 -196 18 -7 35 -10 37
-9 2 1 7 -2 10 -7 11 -18 171 -36 171 -19 0 4 4 6 8 3 5 -3 26 0 48 6 21 6 42
11 47 10 4 -1 7 2 7 8 0 6 6 10 14 10 7 0 19 7 26 15 7 9 15 13 17 11 3 -2 26
17 52 43 78 78 115 175 108 279 -6 81 -14 122 -30 140 -6 8 -12 21 -14 30 -1
9 -7 18 -12 20 -6 2 -11 10 -11 18 0 8 -7 14 -16 14 -8 0 -13 4 -10 9 6 10
-73 77 -86 74 -4 -2 -8 1 -8 6 0 5 -8 11 -17 15 -65 23 -82 28 -117 32 -21 2
-42 6 -46 9 -4 2 -9 3 -11 1z"/>
<path d="M11517 16416 c-116 -39 -178 -94 -231 -206 -28 -58 -31 -74 -30 -155
0 -71 5 -101 23 -140 33 -75 69 -122 123 -161 192 -142 455 -84 566 123 55
105 58 243 7 345 -85 171 -281 254 -458 194z"/>
<path d="M13188 16435 c-2 -2 -23 -5 -48 -8 -53 -6 -109 -24 -131 -43 -8 -8
-21 -14 -27 -14 -6 0 -17 -9 -25 -20 -8 -11 -16 -17 -19 -14 -4 3 -9 -4 -13
-15 -3 -12 -11 -19 -16 -16 -5 4 -9 -1 -9 -9 0 -9 -4 -16 -10 -16 -5 0 -10 -6
-10 -14 0 -8 -4 -16 -10 -18 -20 -6 -52 -123 -53 -188 -1 -68 26 -172 49 -191
8 -6 11 -15 8 -20 -3 -5 2 -9 11 -9 9 0 13 -4 10 -10 -3 -5 -1 -10 4 -10 6 0
11 -7 11 -15 0 -8 4 -15 9 -15 5 0 24 -14 42 -31 28 -26 66 -49 89 -53 3 -1
11 -5 18 -9 6 -5 16 -6 21 -2 5 3 12 1 16 -4 3 -5 13 -10 23 -10 9 0 35 -1 57
-2 74 -2 195 31 195 54 0 4 5 5 10 2 6 -3 10 -1 10 6 0 7 3 10 6 7 7 -8 93 75
87 85 -2 4 0 7 5 7 9 0 50 76 59 112 13 49 12 172 -2 204 -7 18 -11 35 -7 38
3 3 0 6 -7 6 -7 0 -10 4 -7 9 3 4 -12 33 -33 62 -37 52 -98 103 -151 125 -14
6 -37 17 -52 24 -16 8 -30 11 -33 8 -4 -3 -21 -2 -40 2 -19 4 -35 6 -37 5z"/>
<path d="M14705 16433 c-11 -2 -27 -7 -35 -10 -8 -3 -18 -5 -23 -5 -11 3 -91
-39 -99 -52 -4 -6 -8 -7 -8 -2 0 5 -11 -3 -24 -17 -13 -14 -26 -24 -28 -21 -3
2 -11 -7 -18 -21 -7 -14 -17 -25 -22 -25 -5 0 -6 -4 -3 -10 3 -5 2 -10 -2 -10
-5 0 -17 -13 -26 -30 -10 -16 -15 -30 -11 -30 3 0 2 -6 -4 -12 -12 -16 -25
-80 -25 -128 0 -92 33 -185 87 -243 14 -15 26 -31 26 -35 1 -10 77 -57 123
-76 40 -16 109 -30 142 -27 89 6 185 34 185 53 0 5 4 7 9 3 5 -3 17 5 25 17 9
12 16 19 16 15 0 -4 13 4 29 19 31 27 99 130 78 118 -6 -4 -5 1 4 12 9 10 17
26 17 34 0 8 3 26 7 40 6 24 7 109 2 140 -2 8 -8 25 -15 36 -6 12 -8 24 -5 28
3 3 0 6 -7 6 -7 0 -10 3 -7 7 10 10 -33 74 -79 118 -62 59 -73 66 -94 68 -11
1 -20 4 -20 8 0 15 -152 40 -195 32z"/>
<path d="M9200 15645 c-102 -27 -174 -79 -231 -167 -42 -66 -64 -160 -56 -241
20 -195 181 -340 377 -339 156 1 283 81 349 221 23 49 26 69 26 156 0 89 -3
107 -28 160 -44 94 -124 167 -221 201 -55 20 -160 24 -216 9z"/>
<path d="M10765 15646 c-182 -45 -298 -198 -291 -387 9 -273 304 -447 549
-322 74 37 140 104 171 173 27 60 45 140 40 176 -12 86 -18 110 -36 152 -31
70 -130 164 -201 190 -71 27 -166 34 -232 18z"/>
<path d="M12365 15650 c-11 -4 -26 -5 -32 -3 -7 3 -13 0 -13 -6 0 -6 -3 -10
-7 -9 -17 4 -73 -14 -73 -23 0 -6 -4 -8 -9 -5 -5 4 -24 -9 -42 -26 -18 -18
-29 -26 -24 -18 4 8 -1 6 -12 -5 -11 -11 -19 -22 -17 -24 2 -2 -5 -10 -15 -18
-19 -13 -60 -87 -66 -120 -2 -10 -4 -18 -5 -18 -10 0 -16 -144 -7 -180 3 -11
6 -20 7 -20 1 0 3 -7 5 -16 5 -28 37 -89 46 -89 5 0 9 -6 9 -13 0 -17 98 -109
109 -102 5 3 12 -2 15 -11 4 -9 13 -14 21 -10 8 3 15 1 15 -4 0 -4 12 -11 28
-14 15 -4 38 -9 52 -12 52 -12 180 0 180 17 0 6 6 9 13 8 19 -3 67 19 67 31 0
6 5 8 10 5 11 -7 80 59 80 76 0 5 5 7 10 4 9 -5 12 1 9 21 0 3 7 11 16 18 9 6
17 18 18 26 2 8 6 21 10 27 23 37 33 208 14 232 -7 8 -11 16 -9 18 1 1 2 4 1
6 0 1 -2 11 -4 21 -2 10 -10 23 -17 27 -7 5 -9 9 -5 9 14 0 -54 87 -92 118
-44 35 -81 56 -81 45 0 -4 -4 -2 -8 4 -4 7 -17 14 -27 16 -11 2 -27 7 -35 10
-24 10 -113 15 -135 7z"/>
<path d="M15481 15648 c-11 -4 -21 -5 -21 -1 0 3 -6 0 -13 -6 -8 -6 -17 -8
-20 -4 -4 3 -13 1 -20 -5 -8 -7 -17 -9 -20 -5 -4 3 -7 1 -7 -6 0 -7 -4 -9 -10
-6 -5 3 -10 1 -10 -5 0 -6 -4 -9 -8 -6 -5 3 -21 -6 -37 -20 -15 -13 -32 -24
-37 -24 -5 0 -6 -4 -3 -10 3 -5 -2 -10 -11 -10 -10 0 -15 -3 -11 -6 3 -4 -4
-15 -16 -26 -12 -11 -15 -17 -7 -13 8 4 6 -2 -6 -12 -23 -20 -50 -80 -46 -100
2 -7 -1 -13 -6 -13 -24 0 -15 -206 10 -221 5 -3 8 -8 7 -10 -15 -22 98 -169
130 -169 6 0 11 -4 11 -9 0 -10 39 -27 53 -23 4 1 7 -3 7 -9 0 -5 5 -7 10 -4
6 3 10 2 10 -3 0 -5 6 -9 13 -10 6 0 23 -3 37 -6 36 -9 155 -6 168 4 1 2 5 3
10 5 51 14 62 19 62 27 0 5 5 6 10 3 6 -3 10 -1 10 5 0 6 4 9 8 6 20 -12 135
111 144 155 2 8 6 16 10 19 34 26 31 285 -4 306 -4 3 -15 21 -23 40 -8 20 -19
33 -25 29 -6 -4 -9 -2 -8 3 3 9 -32 45 -79 83 -17 14 -44 27 -73 34 -3 1 -18
7 -33 13 -36 15 -127 21 -156 10z"/>
<path d="M9971 14864 c-29 -8 -79 -31 -110 -52 -157 -105 -213 -306 -133 -475
136 -289 544 -294 685 -8 30 62 32 72 32 171 0 96 -3 110 -30 163 -39 78 -126
159 -202 187 -72 27 -171 33 -242 14z"/>
<path d="M13114 14869 c-110 -20 -208 -98 -261 -206 -34 -69 -37 -84 -38 -157
0 -100 14 -147 65 -224 157 -234 516 -215 648 35 36 69 44 105 44 188 0 232
-223 409 -458 364z"/>
<path d="M14680 14866 c-30 -6 -62 -16 -70 -21 -8 -5 -22 -10 -30 -12 -8 -1
-20 -10 -28 -20 -7 -10 -14 -16 -15 -13 -1 2 -13 -3 -27 -13 -13 -9 -21 -17
-18 -17 4 0 -8 -15 -26 -32 -30 -31 -64 -91 -71 -127 -2 -9 -4 -16 -5 -16 -4
0 -12 -61 -13 -95 0 -54 13 -121 31 -155 9 -16 16 -33 17 -37 0 -11 97 -118
107 -118 5 0 16 -7 25 -15 8 -8 19 -13 24 -10 5 4 9 1 9 -5 0 -6 4 -9 9 -6 5
4 11 1 13 -5 2 -6 16 -12 31 -12 15 -1 27 -5 27 -8 0 -4 10 -7 23 -7 12 0 38
-1 58 -2 48 -3 149 19 149 31 0 6 4 8 10 4 5 -3 18 3 30 15 11 11 20 17 20 13
0 -5 7 0 14 10 8 10 17 18 20 18 3 -1 15 8 26 19 11 11 17 20 14 20 -3 0 3 8
14 18 24 19 77 121 68 129 -3 3 -1 14 5 25 15 28 12 158 -4 174 -4 4 -7 16 -7
26 0 10 -5 18 -12 18 -6 0 -8 3 -5 6 8 8 -24 64 -36 64 -4 0 -6 4 -2 9 3 5 -4
16 -15 24 -11 7 -18 16 -15 19 3 2 -6 11 -20 18 -14 7 -25 17 -25 22 0 5 -5 6
-10 3 -6 -3 -13 1 -16 9 -3 9 -10 13 -15 10 -5 -3 -9 0 -9 6 0 6 -4 8 -10 5
-5 -3 -10 -1 -10 5 0 6 -4 8 -10 5 -5 -3 -10 -1 -10 5 0 6 -6 10 -12 9 -7 -2
-26 0 -43 4 -64 14 -102 14 -155 3z"/>
<path d="M10750 14084 c-107 -28 -219 -130 -255 -234 -89 -255 93 -513 360
-512 192 1 348 139 373 328 35 272 -210 486 -478 418z"/>
<path d="M12326 14089 c-62 -14 -154 -69 -196 -116 -136 -155 -129 -381 16
-527 148 -148 407 -142 547 13 139 154 131 397 -17 534 -38 36 -104 75 -148
88 -45 14 -154 18 -202 8z"/>
<path d="M13890 14084 c-21 -6 -42 -9 -45 -6 -3 3 -5 0 -5 -7 0 -7 -4 -10 -9
-6 -5 3 -16 -1 -24 -9 -8 -8 -17 -13 -20 -10 -2 3 -21 -10 -41 -29 -20 -19
-36 -32 -36 -29 0 2 -10 -8 -22 -24 -13 -16 -22 -32 -20 -36 1 -5 -3 -8 -9 -8
-5 0 -16 -15 -23 -32 -7 -18 -17 -42 -21 -53 -10 -27 -17 -71 -17 -120 0 -36
3 -52 14 -105 7 -32 31 -80 40 -80 5 0 7 -4 3 -9 -6 -11 77 -101 94 -101 7 0
9 -4 6 -10 -6 -9 8 -14 28 -11 4 0 7 -4 7 -10 0 -5 4 -8 9 -5 5 4 11 1 13 -4
2 -6 10 -12 18 -13 8 -2 21 -6 28 -10 6 -5 17 -5 22 -2 6 3 10 2 10 -3 0 -4
14 -9 30 -10 17 -1 36 -3 43 -3 24 -3 112 12 123 21 6 6 14 7 17 3 4 -3 16 2
27 12 11 10 20 15 20 11 0 -4 20 7 45 25 40 29 63 51 33 33 -7 -4 -8 -3 -4 4
4 7 14 12 23 12 9 0 13 3 10 7 -4 3 2 13 14 21 17 11 39 48 43 72 1 3 5 11 9
17 5 7 10 22 13 33 2 11 6 30 9 43 7 30 7 95 1 135 -6 40 -64 162 -76 162 -5
0 -12 9 -15 21 -4 11 -9 18 -12 15 -3 -2 -15 5 -27 17 -68 70 -228 110 -326
81z"/>
<path d="M11514 13299 c-275 -95 -351 -443 -140 -637 88 -80 132 -97 256 -97
93 0 112 3 160 26 241 114 298 425 113 614 -100 101 -258 140 -389 94z"/>
<path d="M14670 13304 c-78 -21 -90 -26 -90 -35 0 -5 -3 -8 -7 -8 -20 3 -34
-2 -28 -11 3 -5 -1 -10 -10 -10 -8 0 -18 -7 -21 -15 -4 -8 -9 -13 -13 -10 -4
2 -14 -5 -22 -17 -8 -11 -20 -26 -27 -34 -20 -21 -60 -107 -68 -144 -8 -39 -8
-112 0 -150 7 -36 14 -65 16 -67 2 -2 3 -8 4 -13 0 -6 7 -14 14 -19 8 -5 13
-11 13 -15 -1 -3 -1 -11 -1 -16 0 -13 119 -130 131 -130 5 0 12 0 15 1 4 0 10
-4 13 -10 4 -6 16 -12 26 -14 11 -1 27 -7 35 -12 29 -18 168 -14 228 8 31 11
60 25 64 31 4 6 8 7 8 2 0 -5 9 1 19 13 11 12 22 21 25 19 6 -3 64 64 87 102
50 81 62 219 27 317 -12 31 -30 66 -42 76 -12 10 -14 15 -6 12 8 -4 1 7 -17
23 -17 17 -33 36 -35 41 -1 5 -10 11 -18 13 -8 2 -21 11 -28 21 -7 9 -18 15
-23 12 -5 -4 -9 -2 -9 3 0 9 -65 33 -105 39 -62 10 -116 9 -155 -3z"/>
<path d="M18163 12092 c-21 -2 -37 -11 -45 -25 -9 -17 -12 -319 -13 -1280 0
-693 3 -1261 8 -1264 4 -2 5 -8 2 -12 -2 -5 5 -17 16 -27 18 -16 41 -18 266
-18 219 0 246 1 258 17 6 9 14 14 17 12 3 -3 11 1 18 10 10 12 12 162 12 690
1 371 4 675 8 675 4 0 28 -22 54 -50 25 -27 46 -47 46 -45 0 2 46 -44 102
-101 57 -57 109 -104 116 -104 7 0 11 -4 8 -9 -3 -5 2 -15 11 -22 14 -12 16
-12 8 0 -5 10 -4 12 3 7 7 -4 12 -12 12 -18 0 -12 100 -112 100 -100 0 4 6 -4
13 -18 8 -14 19 -24 25 -22 7 1 12 -2 12 -6 0 -5 7 -17 16 -28 8 -10 13 -12 9
-4 -4 8 1 6 9 -4 9 -11 16 -23 16 -27 0 -4 9 -11 20 -14 11 -4 18 -11 14 -16
-3 -6 2 -13 13 -15 10 -3 27 -18 38 -34 11 -16 23 -26 27 -24 4 3 8 -2 8 -10
0 -9 6 -16 14 -16 8 0 18 -9 21 -20 3 -11 10 -20 14 -20 5 0 65 -56 133 -125
69 -68 128 -121 132 -118 3 4 6 1 6 -5 0 -18 51 -72 61 -66 5 3 9 -1 9 -8 0
-14 84 -98 97 -98 5 0 16 -14 25 -31 10 -17 22 -27 28 -24 5 3 10 -1 10 -9 0
-9 6 -16 13 -16 6 0 23 -16 37 -34 14 -19 27 -33 29 -31 2 2 15 -10 30 -28 14
-18 30 -34 34 -36 5 -2 21 -17 35 -33 39 -44 75 -59 132 -56 27 2 50 7 50 11
0 5 4 6 9 3 5 -3 12 2 17 12 4 9 8 586 8 1282 1 1123 0 1266 -14 1278 -8 8 -9
11 -2 7 6 -3 12 -4 12 -1 0 3 -15 13 -32 23 -28 14 -66 17 -262 17 l-228 1
-37 -35 -38 -35 1 -643 c1 -354 -3 -646 -7 -649 -5 -3 -14 0 -20 7 -9 10 -9
11 3 5 8 -5 4 3 -10 16 -14 14 -27 24 -28 23 -6 -4 -42 36 -42 46 0 6 -3 10
-8 10 -4 0 -35 26 -69 59 -34 32 -64 56 -67 53 -4 -3 -6 -1 -6 5 0 14 -36 54
-43 47 -3 -3 -8 4 -12 15 -3 12 -10 19 -15 16 -5 -3 -12 4 -15 16 -4 11 -9 19
-11 16 -2 -2 -30 22 -61 54 -32 31 -62 55 -67 52 -5 -3 -6 -2 -3 4 8 12 -56
76 -66 67 -4 -4 -7 -3 -7 3 0 9 -98 113 -107 113 -3 0 -19 16 -36 35 -17 19
-37 35 -44 35 -8 0 -11 4 -8 10 3 5 -9 19 -27 30 -18 11 -29 20 -25 20 4 0 -7
14 -25 31 -18 17 -62 59 -97 92 -35 34 -68 61 -73 59 -4 -1 -8 3 -8 9 0 14
-26 39 -40 39 -6 0 -8 5 -5 10 3 6 -1 10 -10 10 -9 0 -14 4 -10 9 3 5 -4 12
-15 16 -11 4 -18 10 -15 14 2 4 -7 14 -20 21 -14 7 -25 19 -25 27 0 7 -7 13
-16 13 -8 0 -12 5 -9 10 3 6 2 10 -3 10 -5 0 -36 26 -68 58 -32 31 -54 51 -49
43 5 -10 4 -12 -3 -7 -7 4 -12 12 -12 18 0 6 -18 28 -40 48 -22 20 -40 34 -40
31 0 -3 -9 8 -20 24 -11 17 -20 26 -20 21 0 -6 -6 -3 -12 6 -13 17 -75 26
-135 20z m1058 -909 c13 -16 12 -17 -3 -4 -17 13 -22 21 -14 21 2 0 10 -8 17
-17z"/>
<path d="M5745 12062 c-11 -2 -29 -13 -41 -23 l-21 -19 1 -1256 1 -1256 28
-24 c18 -16 41 -24 65 -25 20 0 340 0 710 0 l673 -1 33 26 33 25 1 229 1 229
-28 27 -28 27 -444 2 -444 2 0 992 0 993 -27 27 -28 27 -232 1 c-128 0 -242
-1 -253 -3z"/>
<path d="M7543 12062 c-12 -2 -33 -16 -45 -31 l-23 -27 1 -884 c0 -884 0 -885
23 -970 40 -150 113 -272 236 -395 276 -275 693 -393 1061 -301 106 26 115 30
231 82 259 118 468 342 545 584 l23 75 0 915 0 914 -30 21 c-29 19 -46 20
-267 20 l-236 0 -39 -32 -40 -31 0 -839 0 -838 -23 -52 c-69 -161 -322 -264
-538 -219 -134 28 -253 112 -303 213 l-24 48 -3 851 -3 851 -42 23 c-41 24
-49 24 -262 25 -121 0 -230 -1 -242 -3z"/>
<path d="M12400 12046 c-19 -10 -39 -22 -45 -27 -14 -13 -14 -2500 0 -2514 42
-44 51 -45 285 -45 l225 0 32 34 33 33 2 434 3 434 255 2 c302 2 354 7 430 40
74 32 85 38 101 55 9 10 19 15 22 12 3 -3 24 13 48 37 23 23 39 36 35 28 -5
-8 10 4 31 26 22 22 38 41 38 43 -1 1 13 19 31 39 18 20 31 39 29 44 -3 4 2
10 11 13 8 3 12 10 9 16 -3 5 -2 10 4 10 11 0 47 60 43 73 -1 4 2 7 6 7 9 0
37 70 34 83 -1 4 3 7 8 7 6 0 10 6 9 13 -1 6 1 19 4 27 3 8 14 42 24 75 22 78
24 320 3 375 -1 3 -3 10 -4 15 -4 23 -19 71 -25 80 -3 6 -6 12 -6 15 -3 23
-29 80 -36 80 -6 0 -7 5 -4 10 3 6 2 10 -2 10 -5 0 -14 15 -21 33 -6 17 -25
46 -41 63 -17 18 -27 35 -24 38 4 3 -1 6 -10 6 -9 0 -19 5 -23 12 -5 7 -2 8 7
3 8 -4 -4 10 -26 33 -22 22 -43 38 -48 35 -4 -2 -6 -1 -5 4 2 4 -1 9 -6 10 -5
1 -12 6 -15 11 -12 19 -83 72 -91 67 -4 -3 -13 2 -20 10 -7 8 -18 15 -25 15
-7 0 -18 7 -25 15 -7 9 -19 14 -27 11 -7 -3 -13 0 -13 6 0 6 -3 9 -6 5 -4 -3
-19 0 -34 8 -15 8 -40 16 -56 19 -16 2 -29 5 -29 6 0 3 -24 7 -85 15 -25 3
-254 7 -510 8 -435 2 -467 1 -500 -17z m1032 -586 c20 -14 44 -37 53 -52 9
-16 20 -28 25 -28 5 0 7 -7 4 -15 -4 -8 -2 -15 3 -15 6 0 16 -25 23 -55 12
-48 11 -66 -3 -130 -16 -77 -20 -83 -73 -140 -60 -63 -73 -66 -303 -67 -114
-1 -212 1 -217 5 -7 4 -12 477 -5 520 0 5 103 7 229 5 223 -3 228 -3 264 -28z"/>
<path d="M14511 12043 l-26 -23 0 -1250 -1 -1250 28 -27 28 -27 232 0 231 -1
38 30 39 29 0 472 0 471 116 1 c89 1 119 -2 130 -13 8 -8 15 -18 15 -22 1 -15
53 -118 61 -121 4 -2 6 -8 2 -13 -3 -5 0 -9 5 -9 6 0 10 -4 9 -8 -3 -10 33
-84 45 -93 5 -3 9 -10 9 -15 2 -24 11 -44 20 -44 5 0 7 -4 3 -9 -3 -5 1 -16 9
-24 8 -8 12 -17 9 -21 -4 -3 -1 -6 6 -6 7 0 9 -4 6 -10 -3 -5 -1 -10 4 -10 6
0 11 -6 11 -12 0 -7 27 -65 60 -128 33 -63 63 -123 66 -132 4 -10 11 -18 16
-18 5 0 6 -4 3 -10 -3 -5 -2 -10 4 -10 6 0 8 -6 5 -13 -2 -7 3 -22 13 -33 10
-11 19 -26 21 -34 2 -8 11 -24 20 -34 13 -15 14 -18 2 -12 -13 7 -13 6 0 -6 8
-7 16 -20 18 -28 2 -8 7 -17 10 -20 4 -3 8 -11 10 -19 2 -8 18 -29 36 -45 l32
-31 272 0 c244 1 273 3 290 19 21 18 35 66 21 66 -5 0 -8 3 -7 8 4 16 -14 72
-23 72 -6 0 -8 4 -4 9 3 5 -2 16 -10 24 -8 9 -15 23 -15 32 0 8 -6 18 -13 21
-8 3 -14 10 -14 17 0 7 -17 42 -39 78 -21 36 -48 82 -58 102 -11 20 -23 37
-28 37 -5 0 -7 4 -3 10 3 5 -3 18 -14 29 -11 11 -17 22 -13 25 3 3 -1 6 -8 6
-7 0 -10 3 -7 7 4 3 -5 22 -20 41 -15 20 -20 32 -12 27 9 -5 7 -1 -3 12 -10
11 -18 25 -18 31 0 6 -8 16 -17 21 -10 6 -15 11 -11 11 4 0 -1 15 -12 34 -26
47 -64 120 -65 126 -3 15 -41 85 -47 88 -4 2 -4 10 -1 18 3 8 0 14 -6 14 -6 0
-10 3 -10 8 1 4 0 9 -1 12 -12 31 -4 53 22 62 15 6 28 14 28 20 0 5 4 7 8 4 5
-3 20 5 33 17 13 12 25 21 26 20 5 -4 63 32 63 40 0 4 6 7 14 7 7 0 22 11 32
25 10 14 24 25 30 25 6 0 17 11 24 25 7 13 17 22 22 19 4 -3 8 -1 8 3 0 5 18
30 41 57 46 56 120 204 124 246 1 15 5 32 8 38 18 28 29 267 14 289 -5 7 -6
17 -2 23 3 5 3 16 -1 22 -5 7 -9 19 -10 28 -8 55 -59 189 -78 202 -7 5 -7 8
-1 8 6 0 3 6 -6 13 -9 7 -17 17 -19 22 -8 29 -24 54 -31 49 -5 -3 -11 7 -15
21 -3 14 -13 25 -22 25 -8 0 -13 3 -9 6 7 7 -49 64 -64 64 -6 0 -8 4 -5 8 3 5
-6 15 -19 22 -14 7 -25 17 -25 22 0 5 -4 7 -9 4 -5 -3 -12 1 -15 10 -3 8 -10
13 -15 10 -5 -3 -11 1 -15 9 -3 8 -12 15 -21 15 -8 0 -15 5 -15 12 0 6 -3 8
-7 5 -3 -4 -13 -1 -22 7 -9 8 -19 15 -24 15 -4 0 -20 7 -36 15 -16 9 -31 12
-35 9 -3 -4 -6 -2 -6 4 0 9 -22 15 -100 29 -8 1 -26 6 -40 9 -14 4 -301 8
-639 9 l-614 1 -26 -22z m1199 -536 c8 -3 25 -8 38 -12 12 -4 22 -12 22 -17 0
-5 5 -6 10 -3 6 4 9 1 8 -7 -2 -7 4 -12 12 -10 8 2 12 1 8 -3 -4 -4 -2 -13 5
-21 29 -33 37 -44 31 -44 -3 0 -1 -7 6 -15 7 -8 9 -15 6 -15 -4 0 -1 -10 5
-22 14 -26 13 -183 -1 -183 -1 0 -3 -7 -5 -15 -2 -8 -11 -33 -21 -55 -10 -22
-17 -44 -16 -48 2 -5 -1 -6 -5 -4 -10 6 -34 -19 -26 -27 4 -3 -1 -6 -9 -6 -9
0 -20 -6 -26 -13 -9 -10 -81 -14 -339 -14 l-328 -1 2 256 c1 142 2 264 2 272
1 13 41 15 304 13 166 -1 309 -4 317 -6z"/>
<path d="M16960 12039 c-16 -15 -30 -25 -32 -23 -2 2 -4 -561 -4 -1251 l1
-1254 22 -22 c21 -22 29 -23 260 -24 134 -1 248 3 260 8 13 6 25 18 28 29 4
10 9 18 13 18 4 0 7 560 7 1245 0 685 -4 1245 -8 1245 -5 0 -5 5 -2 10 3 6 2
10 -4 10 -5 0 -17 8 -27 17 -15 15 -43 17 -251 18 l-234 0 -29 -26z"/>
<path d="M20700 12050 c-9 -13 -10 -13 -5 0 4 8 -3 5 -14 -8 -19 -22 -20 -36
-20 -260 0 -236 0 -237 23 -257 22 -19 37 -20 295 -19 l271 0 0 -987 0 -988
33 -30 c17 -17 39 -32 47 -32 61 -6 448 -4 460 2 8 4 25 17 38 29 l22 21 0
983 c0 775 3 986 13 993 7 6 123 9 279 9 146 -1 264 1 262 3 -2 2 5 10 15 18
18 12 20 28 21 247 l1 235 -37 28 -37 28 -828 0 c-724 0 -829 -2 -839 -15z"/>
<path d="M3438 12028 l-28 -30 0 -1232 0 -1231 24 -36 25 -36 598 1 598 2 65
24 c78 28 115 48 195 105 141 100 254 273 295 450 18 76 16 211 -4 280 -50
172 -190 338 -366 434 l-50 27 100 79 c154 122 217 210 245 342 50 234 -18
453 -195 634 -86 87 -185 150 -297 187 l-78 26 -550 1 -549 2 -28 -29z m972
-539 c29 -8 90 -85 106 -133 20 -60 15 -173 -10 -211 -9 -14 -13 -25 -10 -25
22 0 -92 -75 -128 -85 -5 -2 -9 -4 -10 -5 -17 -14 -324 -24 -333 -10 -5 9 -9
284 -6 441 l1 36 188 -2 c103 -1 194 -4 202 -6z m32 -997 c37 -15 82 -62 110
-113 19 -36 23 -59 22 -124 -1 -89 -16 -133 -62 -180 -40 -42 -64 -59 -87 -63
-35 -6 -405 -7 -406 -2 0 7 -1 463 0 480 1 14 27 16 199 14 112 -1 208 -6 224
-12z"/>
<path d="M10188 12033 l-22 -24 -1 -1252 c0 -1248 0 -1252 20 -1273 21 -21 23
-21 813 -21 l793 0 23 28 c23 27 23 30 22 258 -1 206 -3 232 -19 248 -16 16
-54 18 -535 18 l-517 0 0 240 0 240 423 0 423 0 30 34 29 34 0 216 0 216 -29
31 -29 31 -413 1 c-228 0 -419 1 -426 1 -9 1 -12 55 -11 216 l1 215 512 0 512
0 25 28 24 28 0 233 -1 233 -26 22 -26 23 -787 0 -786 0 -22 -24z"/>
<path d="M5585 9020 c-11 -4 -23 -6 -27 -3 -5 2 -8 -1 -8 -7 0 -6 -4 -9 -9 -5
-5 3 -17 -2 -25 -11 -9 -8 -16 -12 -16 -7 0 4 -7 -1 -16 -12 -8 -11 -18 -18
-21 -15 -3 3 -11 -4 -17 -15 -6 -11 -14 -22 -17 -25 -8 -6 -39 -107 -34 -112
2 -2 6 -21 8 -43 6 -49 16 -75 30 -75 6 0 8 -3 4 -6 -7 -7 46 -54 62 -54 6 0
11 -4 11 -8 0 -5 6 -9 13 -9 20 -1 42 -7 47 -15 3 -4 17 -9 30 -12 68 -15 101
-25 142 -46 42 -20 45 -25 44 -60 0 -22 -2 -37 -4 -35 -2 2 -12 -5 -23 -16
-42 -42 -191 -20 -259 38 -19 15 -37 23 -47 19 -9 -4 -14 -9 -11 -11 3 -3 -13
-24 -36 -46 l-40 -41 34 -29 c19 -16 40 -29 47 -29 6 0 13 -5 15 -10 2 -6 13
-12 26 -13 12 0 22 -4 22 -8 0 -19 182 -39 240 -26 50 12 70 20 70 30 0 6 3 7
6 4 10 -10 64 32 64 49 0 8 4 13 9 10 5 -3 12 4 16 17 4 12 10 29 13 37 3 8 6
45 6 81 1 56 -4 73 -27 108 -15 23 -32 39 -36 36 -5 -3 -11 2 -15 10 -3 8 -15
15 -26 15 -12 0 -18 5 -15 10 5 9 -23 15 -47 11 -5 0 -8 4 -8 9 0 6 -6 10 -12
9 -7 -1 -25 3 -40 9 -15 6 -38 13 -50 15 -13 2 -36 10 -53 17 -16 7 -33 13
-37 12 -5 -1 -7 1 -6 6 0 4 -2 15 -6 25 -12 26 1 65 26 78 52 28 163 8 229
-40 l27 -20 36 57 c34 54 47 90 27 78 -5 -3 -12 1 -15 10 -4 9 -9 14 -12 11
-4 -3 -13 1 -21 9 -8 8 -19 12 -24 9 -5 -4 -9 -2 -9 4 0 5 -15 13 -32 17 -18
4 -40 9 -48 11 -30 8 -136 10 -155 3z"/>
<path d="M8645 9022 c-11 -2 -24 -8 -29 -13 -6 -5 -18 -9 -28 -9 -10 0 -18 -5
-18 -11 0 -5 -4 -8 -9 -5 -5 3 -21 -7 -37 -22 -15 -15 -24 -20 -20 -12 4 8
-17 -12 -48 -45 -50 -54 -86 -115 -68 -115 4 0 1 -4 -6 -8 -22 -14 -38 -195
-20 -219 6 -7 7 -16 4 -21 -3 -5 1 -18 9 -28 8 -10 15 -27 15 -36 0 -10 5 -18
11 -18 5 0 7 -5 4 -10 -3 -6 1 -13 9 -16 9 -3 16 -11 16 -18 0 -6 17 -27 37
-46 20 -19 33 -28 29 -20 -4 8 1 6 11 -6 20 -22 73 -58 73 -49 0 3 10 0 22 -6
40 -21 158 -29 227 -15 47 9 118 43 141 66 11 11 23 19 28 19 4 -1 13 9 19 22
7 13 13 20 13 15 0 -5 9 3 20 17 11 14 20 31 20 38 0 7 6 20 14 28 17 21 37
81 30 92 -3 5 -1 9 3 9 9 0 8 101 0 145 -11 57 -21 85 -30 85 -6 0 -7 3 -4 6
17 17 -136 179 -160 169 -7 -2 -13 0 -13 6 0 6 -4 7 -10 4 -5 -3 -10 -2 -10 3
0 5 -15 13 -32 17 -37 9 -182 14 -213 7z m195 -163 c34 -19 90 -79 101 -108
13 -32 22 -88 22 -128 -1 -36 -49 -143 -64 -143 -6 0 -7 -4 -4 -10 3 -5 0 -10
-7 -10 -8 0 -19 -5 -26 -12 -21 -21 -83 -36 -135 -32 -72 5 -77 6 -77 16 0 4
-9 8 -19 8 -10 0 -22 7 -25 16 -3 8 -11 12 -16 9 -6 -4 -9 -1 -8 7 2 7 -3 12
-9 11 -7 -2 -12 0 -11 5 1 4 -6 22 -16 41 -22 42 -29 74 -28 131 3 101 59 175
162 214 26 10 135 -1 160 -15z"/>
<path d="M13624 9015 c-46 -14 -104 -43 -104 -51 0 -3 6 -2 13 2 8 5 8 3 -2
-9 -7 -9 -17 -14 -22 -12 -4 3 -17 -16 -29 -42 -21 -48 -26 -100 -16 -161 6
-36 29 -75 39 -65 4 3 7 -1 7 -9 0 -9 23 -28 50 -42 28 -14 50 -23 50 -20 0 4
6 2 13 -4 10 -8 43 -18 87 -27 22 -4 87 -30 98 -38 6 -5 12 -6 12 -1 1 5 7 -6
15 -25 14 -31 14 -37 -2 -64 -20 -33 -33 -37 -108 -38 -57 -1 -136 29 -176 67
l-25 24 -21 -24 c-12 -13 -19 -27 -16 -30 4 -3 -1 -6 -11 -6 -9 0 -14 -5 -11
-10 3 -6 -1 -13 -9 -16 -9 -3 -13 -10 -10 -15 3 -5 0 -9 -6 -9 -6 0 -9 -4 -5
-9 6 -11 104 -76 114 -76 3 0 11 -3 16 -6 9 -6 46 -17 85 -26 24 -5 133 -5
155 0 63 16 75 20 75 29 0 5 4 7 8 4 10 -6 52 30 52 45 0 6 4 8 9 5 8 -5 18
10 22 32 0 4 5 13 11 20 14 16 20 140 7 147 -5 4 -7 11 -4 16 4 5 1 9 -5 9 -6
0 -9 4 -6 9 12 19 -102 110 -118 94 -3 -3 -6 -1 -6 6 0 8 -7 11 -15 7 -8 -3
-15 -1 -15 5 0 6 -7 9 -15 5 -8 -3 -15 -2 -15 3 0 4 -6 8 -12 9 -40 4 -68 11
-85 21 -11 5 -23 7 -27 4 -3 -3 -6 -1 -6 5 0 7 -7 12 -15 12 -17 0 -35 30 -35
60 0 11 11 31 25 44 24 22 64 26 140 13 24 -4 84 -34 107 -54 11 -10 18 -11
23 -4 3 6 4 11 1 11 -3 0 4 11 15 24 12 13 21 28 22 33 0 4 7 14 14 21 18 18
17 42 -2 42 -8 0 -15 5 -15 12 0 6 -3 8 -7 5 -3 -4 -13 -1 -22 7 -47 41 -210
65 -287 41z"/>
<path d="M15131 9020 c-10 -7 -67 -143 -63 -152 1 -5 -2 -8 -8 -8 -5 0 -10 -6
-10 -13 0 -7 -9 -31 -19 -53 -11 -21 -17 -42 -14 -46 2 -5 -1 -8 -6 -8 -6 0
-10 -3 -9 -7 1 -5 -5 -21 -12 -38 -7 -16 -14 -32 -15 -35 -2 -6 -14 -35 -43
-102 -11 -25 -18 -49 -15 -52 4 -3 1 -6 -5 -6 -7 0 -12 -6 -12 -12 -1 -7 -9
-31 -20 -53 -10 -22 -16 -43 -14 -47 3 -5 0 -8 -6 -8 -6 0 -8 -4 -5 -10 3 -5
1 -10 -6 -10 -7 0 -9 -3 -6 -7 4 -3 2 -12 -4 -20 -6 -7 -8 -13 -3 -13 5 0 3
-4 -5 -9 -8 -5 -11 -15 -9 -23 5 -11 25 -14 79 -13 41 0 74 5 75 10 0 6 11 33
23 60 13 28 24 57 26 65 2 8 4 17 5 20 1 3 2 7 2 10 0 3 73 5 163 5 90 0 163
-2 162 -5 -2 -12 38 -110 46 -110 4 0 6 -4 3 -9 -3 -4 1 -17 8 -27 12 -16 27
-19 90 -19 72 0 76 1 70 20 -4 11 -10 25 -14 30 -4 6 -13 28 -20 50 -7 22 -16
45 -19 50 -7 10 -65 146 -66 155 -1 3 -9 22 -18 44 -9 21 -17 42 -17 47 0 5
-4 9 -8 9 -4 0 -8 10 -9 22 -1 11 -6 24 -10 27 -4 3 -9 13 -11 21 -2 8 -12 32
-22 53 -11 20 -17 37 -15 37 3 0 -4 18 -15 40 -11 21 -20 46 -20 55 0 8 -5 15
-12 15 -6 0 -8 3 -5 7 4 3 2 12 -4 20 -6 7 -8 13 -5 13 4 0 0 7 -9 16 -15 15
-127 26 -144 14z m118 -319 c22 -56 41 -106 41 -110 0 -4 -42 -6 -92 -6 -103
0 -105 2 -72 69 7 16 11 32 8 37 -3 5 0 9 5 9 6 0 11 4 11 10 0 20 44 110 50
103 4 -5 26 -55 49 -112z"/>
<path d="M19458 9019 c-7 -4 -16 -5 -20 -2 -5 2 -15 -1 -23 -7 -8 -7 -15 -9
-15 -4 0 5 -6 2 -13 -7 -12 -16 -18 -19 -38 -19 -5 0 -8 -4 -4 -9 3 -5 -3 -12
-14 -16 -32 -10 -63 -87 -63 -155 1 -68 14 -102 54 -142 23 -23 120 -68 148
-68 10 0 21 -4 25 -9 3 -6 14 -8 25 -6 11 2 20 0 20 -5 0 -5 7 -7 15 -4 8 4
15 1 15 -5 0 -6 8 -11 19 -11 45 0 89 -82 54 -103 -7 -5 -10 -14 -7 -20 4 -7
4 -9 -1 -5 -4 4 -14 3 -22 -4 -13 -10 -96 -13 -133 -5 -32 8 -77 29 -113 54
l-37 26 -28 -28 c-15 -16 -20 -25 -12 -21 8 4 6 -1 -5 -11 -44 -39 -50 -53
-29 -67 10 -8 23 -14 27 -14 5 0 14 -7 20 -15 28 -33 169 -73 252 -70 56 2
135 22 135 34 0 5 4 8 8 7 14 -5 67 47 87 86 29 58 25 206 -7 206 -4 0 -8 5
-8 11 0 6 -7 17 -15 25 -8 9 -15 12 -15 8 0 -4 -7 1 -15 12 -8 10 -15 15 -15
9 0 -7 -3 -7 -8 0 -10 15 -79 45 -102 45 -10 0 -22 5 -25 10 -4 6 -14 10 -23
9 -10 -1 -20 0 -24 1 -5 1 -11 3 -15 5 -27 7 -62 26 -76 40 -33 32 -15 95 28
104 42 9 111 3 148 -12 20 -9 39 -15 40 -14 1 1 13 -8 26 -20 23 -21 48 -23
36 -2 -4 5 1 12 9 15 9 3 16 10 16 16 0 5 12 26 28 46 15 20 22 33 16 29 -7
-4 -15 0 -18 8 -5 15 -53 40 -68 37 -5 -1 -8 2 -8 7 0 5 -15 12 -32 16 -18 4
-40 10 -48 12 -27 8 -139 9 -152 2z"/>
<path d="M6840 8648 c0 -287 3 -368 13 -369 70 -6 137 -4 140 5 1 6 3 73 2
149 0 75 2 137 5 138 7 1 260 1 282 0 14 -1 16 -17 16 -133 0 -73 0 -140 1
-148 1 -12 15 -15 70 -15 39 0 73 3 76 7 6 5 9 407 6 684 l-1 50 -77 0 -78 0
1 -147 1 -147 -136 0 c-75 0 -143 2 -152 4 -13 4 -15 25 -15 140 1 75 -1 139
-4 143 -3 4 -38 7 -77 7 l-73 1 0 -369z"/>
<path d="M10024 8645 l0 -370 68 1 c37 1 73 2 78 3 6 1 10 47 10 116 0 85 3
115 13 116 61 5 125 3 121 -3 -3 -5 2 -11 10 -14 9 -3 14 -9 11 -14 -2 -4 3
-16 13 -27 22 -25 40 -52 52 -80 5 -13 14 -23 20 -23 5 0 10 -7 10 -15 0 -8 5
-15 10 -15 6 0 10 -5 10 -11 0 -26 28 -34 111 -35 l87 0 -16 26 c-9 14 -21 28
-27 32 -5 4 -6 8 -1 8 5 0 0 8 -10 18 -10 9 -20 23 -22 31 -2 8 -13 23 -24 33
-12 10 -17 18 -12 18 5 0 0 7 -10 15 -11 8 -16 15 -12 15 5 0 -4 16 -19 35
l-26 36 30 10 c17 6 28 15 25 20 -3 5 1 9 9 9 16 0 57 41 57 58 0 7 4 12 9 12
18 0 38 161 23 185 -4 6 -7 16 -8 23 -4 25 -35 82 -44 82 -5 0 -18 10 -30 22
-11 12 -20 18 -20 12 0 -5 -4 -3 -8 4 -5 7 -18 14 -30 17 -12 2 -28 7 -35 12
-6 4 -104 8 -217 8 l-206 1 0 -371z m408 200 c32 -24 46 -83 29 -124 -21 -48
-62 -64 -175 -65 l-101 -1 -3 108 -3 109 113 -4 c94 -2 118 -6 140 -23z"/>
<path d="M11473 8943 l1 -73 110 0 111 0 0 -297 0 -297 73 -1 c41 0 76 3 79 8
3 5 5 139 5 298 l0 289 109 0 c60 0 109 3 110 8 0 4 2 36 2 72 l2 66 -301 0
-301 0 0 -73z"/>
<path d="M16449 9011 c-1 -3 -2 -169 -3 -369 -1 -235 3 -362 9 -363 61 -7 498
-2 504 6 6 8 7 90 2 130 -1 6 -68 10 -179 10 l-177 0 -2 275 c-1 151 -2 284
-2 295 -1 19 -8 21 -76 21 -41 0 -76 -2 -76 -5z"/>
<path d="M17834 8648 c0 -253 3 -368 10 -369 35 -4 536 -3 537 1 1 3 2 33 3
68 1 48 -2 63 -14 66 -8 2 -97 3 -198 2 -155 -1 -182 1 -183 14 -1 8 -2 44 -2
80 l-1 65 167 1 c92 1 169 3 171 5 5 5 8 61 7 107 l-1 32 -170 0 c-129 0 -170
3 -171 13 -5 68 -2 137 6 140 5 2 91 3 190 3 112 -1 183 3 187 9 4 5 8 37 8
70 l0 61 -273 0 -273 -1 0 -367z"/>
</g>
</svg>
