<?xml version="1.0" standalone="no"?>
<!DOCTYPE svg PUBLIC "-//W3C//DTD SVG 20010904//EN"
 "http://www.w3.org/TR/2001/REC-SVG-20010904/DTD/svg10.dtd">
<svg version="1.0" xmlns="http://www.w3.org/2000/svg"
 width="740.000000pt" height="740.000000pt" viewBox="0 0 740.000000 740.000000"
 preserveAspectRatio="xMidYMid meet">
<metadata>
Created by potrace 1.14, written by Peter Selinger 2001-2017
</metadata>
<g transform="translate(0.000000,740.000000) scale(0.100000,-0.100000)"
fill="#000000" stroke="none">
<path d="M3517 7294 c-1 -2 -34 -5 -72 -8 -39 -3 -79 -7 -91 -10 -11 -2 -45
-7 -75 -10 -30 -3 -65 -8 -79 -11 -14 -3 -39 -8 -55 -10 -17 -2 -64 -12 -105
-20 -41 -9 -86 -19 -100 -21 -31 -6 -130 -33 -150 -41 -8 -4 -17 -7 -20 -7
-47 -9 -284 -93 -400 -143 -77 -33 -266 -127 -280 -139 -8 -7 -17 -12 -20 -12
-8 1 -94 -44 -100 -52 -3 -4 -26 -18 -51 -32 -81 -45 -93 -53 -118 -75 -14
-13 -30 -23 -35 -23 -4 0 -22 -12 -40 -26 -17 -14 -65 -51 -106 -81 -134 -99
-223 -177 -384 -339 -121 -121 -246 -267 -246 -287 0 -4 -4 -6 -9 -2 -5 3 -12
-4 -16 -15 -3 -11 -11 -20 -16 -20 -5 0 -9 -7 -9 -15 0 -8 -3 -15 -7 -15 -5 0
-24 -25 -43 -55 -19 -30 -38 -54 -42 -55 -5 0 -8 -7 -8 -15 0 -9 -7 -18 -15
-21 -8 -4 -15 -12 -15 -19 0 -8 -6 -20 -12 -27 -7 -8 -18 -23 -25 -33 -72
-118 -93 -155 -93 -164 0 -6 -5 -11 -11 -11 -5 0 -7 -4 -4 -10 3 -5 3 -10 -2
-10 -4 0 -28 -42 -53 -93 -25 -50 -49 -95 -55 -99 -6 -5 -6 -8 0 -8 5 0 4 -5
-3 -12 -7 -7 -12 -20 -12 -30 0 -10 -4 -18 -10 -18 -5 0 -10 -8 -10 -18 0 -10
-4 -22 -8 -27 -4 -6 -18 -37 -31 -70 -12 -33 -27 -69 -31 -80 -5 -11 -22 -59
-38 -107 -16 -48 -31 -85 -34 -83 -3 3 -4 -8 -3 -25 1 -19 -3 -30 -11 -30 -8
0 -11 -6 -8 -15 4 -8 1 -15 -5 -15 -6 0 -8 -7 -4 -17 5 -12 3 -14 -7 -8 -10 6
-12 4 -7 -8 3 -10 2 -17 -3 -17 -5 0 -7 -7 -4 -15 4 -8 1 -15 -6 -15 -6 0 -9
-4 -6 -9 3 -5 -1 -14 -9 -21 -8 -7 -12 -17 -8 -24 3 -6 3 -8 -2 -4 -4 4 -14 0
-22 -10 -10 -11 -12 -12 -8 -2 4 8 -3 4 -15 -10 -12 -14 -19 -18 -15 -10 4 8
0 7 -9 -4 -8 -10 -19 -15 -25 -11 -6 3 -8 0 -5 -9 3 -9 -3 -17 -16 -21 -12 -4
-19 -9 -17 -12 8 -7 -26 -43 -35 -37 -5 3 -8 2 -6 -3 3 -12 -30 -83 -39 -83
-10 0 -17 -64 -17 -145 0 -89 6 -116 31 -157 16 -26 19 -38 10 -41 -9 -4 -8
-6 2 -6 33 -2 80 -101 47 -101 -26 0 -27 -30 -2 -40 26 -10 37 -32 38 -80 1
-16 4 -30 8 -30 4 0 7 -6 8 -12 0 -7 5 -29 10 -49 5 -20 10 -73 11 -117 1 -44
4 -89 6 -101 2 -12 6 -56 9 -99 9 -129 44 -333 81 -477 15 -61 66 -241 72
-255 3 -8 7 -18 8 -22 2 -5 4 -10 5 -13 1 -3 3 -8 4 -12 5 -21 18 -60 26 -78
20 -43 54 -140 52 -147 -1 -5 3 -8 8 -8 6 0 10 -9 10 -19 0 -11 5 -23 10 -26
6 -3 10 -15 10 -26 0 -10 5 -19 10 -19 6 0 10 -8 10 -17 0 -10 7 -27 15 -37 8
-10 12 -23 9 -27 -3 -5 -2 -9 3 -9 4 0 14 -15 22 -33 8 -17 22 -44 33 -59 10
-14 18 -31 18 -38 0 -6 7 -18 15 -27 8 -8 13 -19 10 -24 -4 -5 -3 -9 2 -9 4 0
24 -31 43 -68 19 -37 41 -71 48 -75 7 -5 10 -12 8 -16 -3 -4 2 -17 12 -27 23
-26 54 -74 47 -74 -3 0 6 -12 20 -26 14 -14 22 -30 19 -36 -4 -7 -2 -8 4 -4 7
4 12 2 12 -3 0 -6 8 -20 18 -30 35 -40 47 -56 45 -63 -2 -4 6 -10 17 -13 11
-4 18 -11 15 -16 -4 -5 -1 -9 6 -9 7 0 10 -3 6 -6 -3 -4 -1 -12 6 -19 7 -7 30
-33 52 -59 66 -77 316 -328 380 -381 33 -28 76 -65 95 -82 19 -18 41 -33 48
-33 6 0 12 -6 12 -14 0 -8 9 -17 20 -21 11 -3 42 -24 70 -46 27 -21 54 -39 60
-39 5 0 10 -4 10 -8 0 -4 23 -21 50 -37 27 -16 50 -34 50 -39 0 -5 3 -6 7 -3
3 4 13 1 22 -7 9 -8 34 -24 56 -37 22 -12 67 -37 100 -56 33 -18 98 -52 145
-75 47 -22 88 -45 91 -50 3 -5 8 -9 10 -8 6 2 36 -8 119 -42 41 -17 84 -34 95
-38 11 -4 31 -12 45 -18 61 -26 318 -103 390 -117 8 -2 15 -4 15 -5 0 -2 15
-5 60 -13 17 -3 41 -8 55 -11 91 -20 97 -21 195 -36 44 -7 100 -14 125 -16 25
-1 45 -4 45 -5 0 -1 20 -3 45 -4 100 -5 130 -9 130 -19 0 -8 3 -8 8 0 9 13
122 13 122 -1 0 -5 5 -3 10 5 9 13 11 13 20 0 5 -8 10 -10 10 -4 0 7 25 11 68
11 99 1 296 15 367 27 17 3 53 8 80 11 28 4 61 9 75 12 14 2 45 8 70 13 25 4
77 16 115 25 39 9 77 18 85 20 134 29 451 140 557 194 21 10 41 19 46 20 20 3
335 169 355 188 6 6 21 15 32 18 11 3 20 11 20 16 0 5 5 9 11 9 8 0 81 47 174
112 16 11 212 166 242 191 105 86 396 392 468 492 16 22 32 42 35 45 3 3 32
41 63 85 31 44 61 85 67 92 5 7 10 15 10 18 0 3 23 39 50 80 28 41 50 76 50
78 0 3 24 47 54 100 30 52 52 97 50 100 -3 2 2 10 11 17 8 7 15 18 15 25 0 6
10 32 23 56 21 41 109 253 132 319 1 3 4 12 7 20 7 18 39 121 43 135 7 34 19
71 24 80 3 6 6 15 7 22 1 7 9 40 18 75 15 60 20 85 31 146 3 15 8 38 11 52 4
14 8 39 10 55 2 17 6 44 9 60 3 17 7 48 10 69 2 21 9 43 17 47 7 5 8 9 3 9 -6
0 -11 11 -11 25 0 14 3 25 7 25 4 0 6 18 4 40 -2 29 0 38 8 33 9 -5 9 -3 1 8
-6 8 -10 23 -8 34 2 11 5 75 6 143 1 76 6 122 13 122 6 0 7 3 0 8 -16 11 -18
44 -3 53 8 5 9 9 2 9 -8 0 -11 25 -11 70 0 39 -3 73 -6 76 -3 4 -2 16 4 27 7
12 7 17 1 13 -6 -3 -9 5 -8 19 0 14 4 25 9 25 4 0 7 4 7 10 0 5 -3 9 -7 9 -20
-3 -26 2 -13 11 12 8 12 10 1 10 -11 0 -11 3 0 17 12 14 12 16 0 8 -11 -6 -13
-4 -8 8 3 9 3 19 -2 21 -4 3 -7 20 -6 38 1 18 -2 43 -6 56 -6 15 -5 21 1 17 6
-3 10 -1 10 4 0 6 -5 11 -11 11 -7 0 -9 10 -7 25 3 13 2 22 -3 19 -4 -2 -8 4
-8 13 -1 35 -8 79 -19 118 -6 22 -12 55 -14 73 -1 17 -6 32 -11 32 -5 0 -7 9
-4 20 3 11 1 20 -4 20 -5 0 -8 3 -7 8 1 4 -4 26 -11 50 -6 23 -9 46 -7 51 3 5
-1 14 -8 21 -8 6 -13 20 -11 30 2 11 0 22 -6 25 -5 4 -9 17 -9 31 0 13 -3 24
-8 24 -4 0 -13 24 -20 53 -7 28 -16 53 -22 55 -5 2 -7 9 -4 16 3 8 -2 21 -11
29 -9 9 -15 20 -15 24 1 4 -2 17 -6 28 -3 11 -6 23 -5 28 1 4 -3 7 -9 7 -5 0
-7 6 -4 14 3 8 0 17 -5 21 -6 3 -9 11 -6 16 4 5 2 9 -4 9 -10 0 -27 38 -23 53
1 4 -3 7 -9 7 -5 0 -8 4 -5 9 3 5 -1 14 -10 21 -8 7 -13 19 -10 27 3 8 -1 16
-9 19 -8 4 -12 10 -9 15 3 5 0 9 -7 9 -7 0 -9 3 -6 6 3 4 1 16 -5 28 -7 11
-11 24 -10 29 1 4 -3 7 -8 7 -6 0 -10 9 -10 19 0 10 -7 22 -16 25 -8 3 -13 10
-10 15 4 5 0 16 -8 24 -8 7 -27 38 -43 68 -15 30 -33 60 -40 67 -6 6 -15 21
-18 32 -3 11 -11 20 -16 20 -6 0 -8 4 -5 8 3 5 -4 14 -14 22 -10 8 -17 18 -14
22 3 5 -3 17 -13 26 -10 9 -24 30 -31 45 -7 17 -17 25 -24 21 -6 -4 -8 -3 -5
3 6 9 -1 20 -42 69 -5 7 -7 15 -4 18 4 3 -1 6 -11 6 -9 0 -15 3 -12 8 2 4 -10
24 -27 44 -18 20 -48 55 -67 79 -19 24 -50 58 -67 77 -18 19 -33 38 -33 43 0
6 -4 7 -10 4 -5 -3 -10 -1 -10 5 0 6 -52 62 -115 125 -63 63 -115 112 -115
109 0 -2 -21 16 -46 41 -25 25 -49 45 -55 45 -5 0 -9 5 -9 10 0 6 -5 10 -11
10 -16 0 -39 26 -31 35 4 5 1 5 -6 1 -7 -4 -15 -1 -18 8 -3 9 -12 16 -20 16
-8 0 -14 5 -14 12 0 6 -3 9 -6 6 -3 -4 -14 1 -23 10 -34 32 -63 53 -87 64 -13
6 -24 15 -24 20 0 4 -7 8 -15 8 -8 0 -15 5 -15 10 0 6 -7 10 -15 10 -8 0 -15
5 -15 10 0 6 -5 10 -12 10 -6 0 -26 11 -43 25 -18 13 -35 21 -39 18 -3 -4 -6
-2 -6 4 0 6 -8 13 -17 17 -10 3 -34 15 -53 26 -53 32 -129 70 -136 69 -4 0
-10 3 -13 8 -10 13 -68 43 -73 37 -3 -2 -11 2 -18 11 -7 8 -17 15 -22 15 -5 0
-30 10 -56 22 -26 12 -49 22 -52 23 -3 1 -21 8 -41 17 -20 9 -45 19 -57 22
-12 4 -22 12 -22 17 0 6 -4 7 -10 4 -5 -3 -24 1 -42 9 -18 8 -51 19 -73 26
-22 6 -49 15 -60 20 -26 11 -144 47 -175 54 -14 3 -50 12 -80 20 -30 9 -82 21
-115 27 -33 6 -64 12 -70 13 -5 2 -30 6 -55 10 -64 10 -85 14 -85 16 0 1 -22
3 -49 6 -27 2 -60 7 -75 10 -14 4 -42 7 -61 9 -19 1 -37 3 -40 4 -7 4 -539 8
-543 5z m-2852 -2584 c-3 -5 -12 -10 -18 -10 -7 0 -6 4 3 10 19 12 23 12 15 0z
m0 -29 c-9 -8 -36 -10 -30 -2 2 4 11 8 20 8 8 0 13 -3 10 -6z m-2 -56 c-3 -9
-8 -14 -10 -11 -3 3 -2 9 2 15 9 16 15 13 8 -4z m-493 -715 c0 -5 -7 -10 -16
-10 -8 0 -12 5 -9 10 3 6 10 10 16 10 5 0 9 -4 9 -10z m400 -70 c0 -5 -5 -10
-11 -10 -5 0 -7 5 -4 10 3 6 8 10 11 10 2 0 4 -4 4 -10z"/>
<path d="M95 3979 c-3 -4 2 -6 10 -5 21 3 28 13 10 13 -9 0 -18 -4 -20 -8z"/>
<path d="M142 3984 c6 -10 -17 -36 -24 -28 -3 2 -5 -3 -5 -11 0 -21 9 -18 30
10 12 17 14 26 5 31 -6 4 -9 3 -6 -2z"/>
</g>
</svg>
