<?xml version="1.0" encoding="UTF-8"?>
<svg id="Layer_2" data-name="Layer 2" xmlns="http://www.w3.org/2000/svg" viewBox="0 0 110 76.5">
  <defs>
    <style>
      .cls-1 {
        fill: #33658a;
      }

      .cls-1, .cls-2, .cls-3, .cls-4, .cls-5, .cls-6, .cls-7, .cls-8, .cls-9, .cls-10, .cls-11, .cls-12 {
        stroke-width: 0px;
      }

      .cls-2 {
        fill: #e8ab3c;
      }

      .cls-3 {
        fill: #ffc90d;
      }

      .cls-4 {
        fill: #c8d4d9;
      }

      .cls-5 {
        fill: #2f5c7e;
      }

      .cls-6 {
        fill: #e86262;
      }

      .cls-7 {
        fill: #fdce97;
      }

      .cls-8 {
        fill: #dce9ed;
      }

      .cls-9 {
        fill: #f14f4a;
      }

      .cls-10 {
        fill: #ff6b6b;
      }

      .cls-11 {
        fill: #ffbc42;
      }

      .cls-12 {
        fill: #fdd5a6;
      }
    </style>
  </defs>
  <g id="Layer_1-2" data-name="Layer 1">
    <g>
      <g id="layer1">
        <path id="path6806" class="cls-2" d="m69.03,53.07l-5.1,11.47,2.33,1.04,3.93-8.85,3.93,8.85,2.33-1.04-5.1-11.47h-2.33Z" vector-effect="none"/>
        <path id="path6796" class="cls-2" d="m58.81,75.22v-28.05c0-1.7,2.55-1.7,2.55,0v28.05h-2.55Z" vector-effect="none"/>
        <path id="path11133" class="cls-1" d="m39.52,40.8c9.15,0,16.57,7.42,16.57,16.57v17.84c0,.7-.57,1.28-1.27,1.28H1.28c-.7,0-1.28-.57-1.28-1.27,0,0,0,0,0,0v-17.85C0,48.22,7.42,40.8,16.57,40.8h22.95Z" vector-effect="none"/>
        <path id="path11037" class="cls-1" d="m28.13,0c-8.43,0-15.3,6.87-15.3,15.3,0,2.14.35,4.41.95,6.69h28.71c.6-2.28.94-4.55.94-6.69,0-8.43-6.86-15.3-15.29-15.3h0Z" vector-effect="none"/>
        <path id="path11141" class="cls-4" d="m28.13,45.87l-8.92,6.37,8.92,21.67,8.92-21.67-8.92-6.37Z"/>
        <path id="path11098" class="cls-10" d="m25.77,51l-2.65,15.93,5.01,7.01,5.01-7.01-2.65-15.93h-4.71Z" vector-effect="none"/>
        <path id="path11061" class="cls-7" d="m20.4,31.88v14.02h15.3v-14.02h-15.3Z" vector-effect="none"/>
        <path id="path11080" class="cls-6" d="m23.56,47.33s-.75,1.19-.35,1.78l2.56,3.85c.24.36.64.58,1.07.58h2.57c.43,0,.84-.22,1.07-.58l2.57-3.85c.39-.59-.36-1.78-.36-1.78h-9.13Z" vector-effect="none"/>
        <path id="path11070" class="cls-8" d="m20.47,38.22c-.34,0-.66.14-.89.38l-2.55,2.55,2.92,12.13,8.92-6.37c.68-.49.71-1.48.08-2.01l-7.64-6.38c-.23-.19-.53-.3-.83-.29h0Z" vector-effect="none"/>
        <path id="path6778" class="cls-5" d="m9.08,76.5v-11.5c0-1.7,2.55-1.7,2.55,0v11.5h-2.55Z" vector-effect="none"/>
        <path id="path11074" class="cls-8" d="m35.75,38.22c-.29,0-.57.11-.79.29l-7.65,6.38c-.64.53-.6,1.53.08,2.01l8.92,6.37,2.92-12.13-2.55-2.55c-.24-.25-.58-.38-.92-.38h0Z" vector-effect="none"/>
        <path id="path11046" class="cls-7" d="m40.48,20.36c-.72.03-1.45.27-2.07.71v9.49c3.16,0,6.37-2.45,6.37-6.37h0s0-.02,0-.02c-.06-1.91-1.49-3.32-3.07-3.73-.4-.1-.81-.15-1.23-.13v.04Z" vector-effect="none"/>
        <path id="path11127" class="cls-5" d="m16.65,40.8c-1.53,0-3.01.21-4.42.59-.48.13-.83.52-.92,1.01l-1.02,5.83c-.07.41.06.83.35,1.12l3.31,3.31-1.1,4.4c-.1.38,0,.79.23,1.1l14.02,17.85c.44.55,1.24.65,1.79.21.41-.33.59-.87.43-1.38l-10.2-33.15c-.16-.53-.66-.9-1.22-.9h-1.28Z" vector-effect="none"/>
        <path id="path11143" class="cls-5" d="m47.17,76.5v-11.5c0-1.7-2.55-1.7-2.55,0v11.5h2.55Z" vector-effect="none"/>
        <path id="path6800" class="cls-2" d="m48.64,53.07l-5.1,11.47,2.33,1.04,3.93-8.86,3.93,8.86,2.32-1.04-5.1-11.47h-2.32Z" vector-effect="none"/>
        <path id="path6802" class="cls-11" d="m60,49.69c-2.76,0-4.62.73-6.09,1.38-1.47.65-2.47,1.17-4.1,1.17-1.06,0-1.82-.26-2.31-.5-.49-.24-.62-.4-.62-.4-.5-.5-1.31-.5-1.81,0-.5.5-.5,1.31,0,1.81,0,0,0,0,0,0,0,0,.5.48,1.29.88.79.39,1.96.77,3.44.77,2.2,0,3.74-.76,5.14-1.38,1.4-.62,2.72-1.17,5.05-1.17s3.66.54,5.06,1.17c1.4.62,2.94,1.38,5.14,1.38,1.49,0,2.65-.38,3.44-.77.79-.39,1.29-.88,1.29-.88.51-.48.54-1.29.06-1.8-.48-.51-1.29-.54-1.8-.06-.02.02-.04.04-.06.06,0,0-.15.16-.63.4-.49.24-1.23.5-2.3.5-1.63,0-2.64-.52-4.1-1.17-1.47-.65-3.34-1.38-6.1-1.38h0Z" vector-effect="none"/>
        <path id="path6808" class="cls-11" d="m53.63,76.5h12.75c1.7,0,1.7-2.55,0-2.55h-12.81c-1.76.09-1.63,2.63.07,2.55h0Z" vector-effect="none"/>
        <path id="path11055" class="cls-7" d="m15.78,20.36c.72.03,1.45.27,2.07.71v9.49c-3.16,0-6.37-2.45-6.37-6.37h0s0-.02,0-.02c.06-1.91,1.49-3.32,3.07-3.73.4-.1.81-.15,1.23-.13v.04Z" vector-effect="none"/>
        <path id="path10375-2" class="cls-12" d="m30.6,14.03s-1.27,3.82-5.1,3.82h-5.1c-2.11,0-3.83,1.72-3.83,3.83v4.95c0,6.21,4.87,11.4,11.08,11.62,6.52.22,11.87-5,11.87-11.46v-5.1c0-2.13-1.74-3.82-3.87-3.83-3.79-.02-5.06-3.82-5.06-3.82h0Z" vector-effect="none"/>
        <path id="path11123" class="cls-5" d="m38.32,40.8c-.56,0-1.05.36-1.21.89l-10.2,33.16c-.2.67.18,1.39.86,1.59.5.15,1.04-.02,1.37-.43l14.02-17.84c.25-.31.33-.72.24-1.1l-1.1-4.4,3.32-3.32c.29-.29.42-.71.35-1.12l-1.02-5.83c-.09-.48-.44-.88-.91-1.01-1.41-.39-2.89-.59-4.42-.59h-1.28Z" vector-effect="none"/>
        <g>
          <path id="path11170" class="cls-11" d="m44.63,63.75c-.7,0-1.28.57-1.28,1.27,0,0,0,0,0,0,0,0-.02,1.54.77,3.12.79,1.58,2.63,3.26,5.61,3.26s4.81-1.68,5.6-3.26c.79-1.58.77-3.12.77-3.12,0-.7-.57-1.28-1.27-1.28h-10.2Z" vector-effect="none"/>
          <path id="path11178" class="cls-11" d="m65.18,63.75c-.7,0-1.27.58-1.27,1.28h0s-.02,1.54.77,3.12c.79,1.58,2.62,3.26,5.6,3.26s4.81-1.68,5.6-3.26c.79-1.58.77-3.12.77-3.12,0-.7-.57-1.28-1.27-1.28h-10.2Z" vector-effect="none"/>
        </g>
      </g>
      <g>
        <path class="cls-9" d="m109.64,68.7l-3.76,3.76c-.47.47-1.24.47-1.72,0l-6.35-6.35-3.3,3.27c-.94.94-2.54.61-3-.64l-7.02-19.07c-.54-1.45.88-2.85,2.33-2.33l18.74,6.78c1.24.45,1.6,2.06.67,3l-3.24,3.21,6.65,6.65c.47.47.47,1.24,0,1.72Z"/>
        <g>
          <path class="cls-3" d="m84.16,45.55c-.31,0-.61-.14-.81-.41l-3.06-4.21c-.32-.45-.23-1.07.22-1.4.45-.33,1.07-.23,1.4.22l3.06,4.21c.32.45.23,1.07-.22,1.4-.18.13-.38.19-.59.19Z"/>
          <path class="cls-3" d="m81.45,49.27c-.1,0-.21-.02-.31-.05l-4.95-1.61c-.53-.17-.81-.74-.64-1.26.17-.53.74-.81,1.26-.64l4.95,1.61c.53.17.81.74.64,1.26-.14.42-.53.69-.95.69Z"/>
          <path class="cls-3" d="m76.5,55.48c-.42,0-.81-.27-.95-.69-.17-.53.12-1.09.64-1.26l4.95-1.61c.53-.17,1.09.12,1.26.64.17.53-.12,1.09-.64,1.26l-4.95,1.61c-.1.03-.21.05-.31.05Z"/>
          <path class="cls-3" d="m87.51,43.12v-5.19c0-.49.34-.92.82-1.01.64-.11,1.19.37,1.19.99v5.23c0,.62-.55,1.1-1.19.99-.48-.09-.82-.52-.82-1.01Z"/>
        </g>
      </g>
    </g>
  </g>
</svg>