<?xml version="1.0" encoding="UTF-8"?>
<svg id="Layer_2" data-name="Layer 2" xmlns="http://www.w3.org/2000/svg" viewBox="0 0 100 69.14">
  <defs>
    <style>
      .cls-1 {
        fill: #ef5350;
      }

      .cls-1, .cls-2, .cls-3, .cls-4, .cls-5, .cls-6, .cls-7, .cls-8, .cls-9 {
        stroke-width: 0px;
      }

      .cls-2 {
        fill: #ffc90d;
      }

      .cls-3 {
        fill: #ffb74d;
      }

      .cls-4 {
        fill: #ffccbc;
      }

      .cls-5 {
        fill: #ffa726;
      }

      .cls-6 {
        fill: #e53935;
      }

      .cls-7 {
        fill: #eee;
      }

      .cls-8 {
        fill: #f14f4a;
      }

      .cls-9 {
        fill: #ffab91;
      }
    </style>
  </defs>
  <g id="Layer_1-2" data-name="Layer 1">
    <g>
      <g id="_21-Key" data-name=" 21-Key">
        <path class="cls-3" d="m57.46,8.05h-23.1C31.16,1.06,22.86-1.97,15.9,1.34c-6.71,3.19-9.69,11.23-6.69,18.02,3.11,7.05,11.38,10.17,18.36,6.97,3-1.38,5.41-3.79,6.79-6.79h9.31l3.45-3.45,3.45,3.45,3.45-3.45,3.45,3.45,5.75-5.75-5.75-5.75Z"/>
        <circle class="cls-7" cx="17.24" cy="13.86" r="4.6"/>
        <path class="cls-1" d="m23.66,58.2l-15.14-15.14c-.9-.9-2.35-.9-3.25,0h0s-5.27,5.27-5.27,5.27l18.39,18.39,5.27-5.27c.9-.9.9-2.35,0-3.25h0Z"/>
        <path class="cls-6" d="m23.66,61.45l-5.28,5.28L0,48.34l3.92-3.92c-.89.89-.9,2.34,0,3.24,0,0,0,0,0,0l9.4,9.4c.89.89,2.34.9,3.24,0,0,0,0,0,0,0l2.98-2.98,4.13,4.13c.89.89.9,2.34,0,3.24,0,0,0,0,0,0Z"/>
        <path class="cls-4" d="m65.38,30.01c-1.71-1.7-4.47-1.7-6.17,0l-11.08,10.27h0c-.5-2.05-2.34-3.5-4.45-3.51h-22.82c-3.05,0-5.97,1.21-8.13,3.37l-3.53,3.53,13.79,13.79.95-.95c.86-.86,2.03-1.35,3.25-1.34h18.65c3.69,0,7.15-1.77,9.31-4.76l10.64-14.71c1.29-1.74,1.11-4.16-.41-5.69Z"/>
        <path class="cls-9" d="m66.66,33.09c0,.94-.3,1.85-.86,2.61l-10.64,14.71c-2.16,2.99-5.62,4.76-9.31,4.76h-18.65c-1.22,0-2.39.48-3.25,1.34l-.95.95-3.45-3.45.95-.95c.86-.86,2.03-1.35,3.25-1.34h18.65c3.69,0,7.15-1.77,9.31-4.76l10.64-14.71c.56-.75.86-1.67.86-2.61,0-.28-.03-.56-.08-.83,2.05.4,3.53,2.19,3.53,4.28Z"/>
        <path class="cls-9" d="m44.71,36.89c.07.34.11.69.11,1.03,0,2.54-2.06,4.6-4.59,4.6h-7.42c-.85,0-1.62.6-1.75,1.44-.17,1.08.66,2.01,1.7,2.01h10.92c2.54,0,4.6-2.06,4.6-4.6,0-2.14-1.48-4-3.56-4.48Z"/>
        <path class="cls-5" d="m8.77,18.27c-.79-2.37-.93-4.91-.42-7.35,1.58,7.45,8.91,12.2,16.35,10.62,4.26-.91,7.85-3.78,9.67-7.74h21.2c1.22,0,2.39-.48,3.25-1.35l1.53-1.53,2.87,2.87-5.75,5.75-3.45-3.45-3.45,3.45-3.45-3.45-3.45,3.45h-9.31c-3.18,6.93-11.37,9.97-18.3,6.79-3.43-1.57-6.07-4.48-7.29-8.05h0Z"/>
      </g>
      <g>
        <path class="cls-8" d="m99.64,65.02l-3.76,3.76c-.47.47-1.24.47-1.72,0l-6.35-6.35-3.3,3.27c-.94.94-2.54.61-3-.64l-7.02-19.07c-.54-1.45.88-2.85,2.33-2.33l18.74,6.78c1.24.45,1.6,2.06.67,3l-3.24,3.21,6.65,6.65c.47.47.47,1.24,0,1.72Z"/>
        <g>
          <path class="cls-2" d="m74.16,41.87c-.31,0-.61-.14-.81-.41l-3.06-4.21c-.32-.45-.23-1.07.22-1.4.45-.33,1.07-.23,1.4.22l3.06,4.21c.32.45.23,1.07-.22,1.4-.18.13-.38.19-.59.19Z"/>
          <path class="cls-2" d="m71.45,45.6c-.1,0-.21-.02-.31-.05l-4.95-1.61c-.53-.17-.81-.74-.64-1.26.17-.53.74-.81,1.26-.64l4.95,1.61c.53.17.81.74.64,1.26-.14.42-.53.69-.95.69Z"/>
          <path class="cls-2" d="m66.5,51.81c-.42,0-.81-.27-.95-.69-.17-.53.12-1.09.64-1.26l4.95-1.61c.53-.17,1.09.12,1.26.64.17.53-.12,1.09-.64,1.26l-4.95,1.61c-.1.03-.21.05-.31.05Z"/>
          <path class="cls-2" d="m77.51,39.44v-5.19c0-.49.34-.92.82-1.01.64-.11,1.19.37,1.19.99v5.23c0,.62-.55,1.1-1.19.99-.48-.09-.82-.52-.82-1.01Z"/>
        </g>
      </g>
    </g>
  </g>
</svg>